<svg width="30" height="30" viewBox="0 0 30 30" fill="none" xmlns="http://www.w3.org/2000/svg">
<path d="M11.4415 6.76047C13.0248 3.92016 13.8164 2.5 15 2.5C16.1836 2.5 16.9752 3.92016 18.5585 6.76047L18.9682 7.49529C19.4181 8.30242 19.6431 8.70598 19.9938 8.97226C20.3446 9.23853 20.7814 9.33738 21.6551 9.53506L22.4506 9.71504C25.5252 10.4107 27.0625 10.7585 27.4282 11.9347C27.794 13.1108 26.7459 14.3363 24.6499 16.7874L24.1076 17.4215C23.512 18.118 23.2142 18.4663 23.0802 18.8971C22.9462 19.328 22.9912 19.7926 23.0813 20.7219L23.1633 21.568C23.4802 24.8382 23.6386 26.4734 22.6811 27.2003C21.7235 27.9272 20.2842 27.2644 17.4054 25.939L16.6606 25.596C15.8426 25.2194 15.4336 25.0311 15 25.0311C14.5664 25.0311 14.1574 25.2194 13.3394 25.596L12.5946 25.939C9.71584 27.2644 8.27647 27.9272 7.31894 27.2003C6.3614 26.4734 6.51985 24.8382 6.83675 21.568L6.91873 20.7219C7.00878 19.7926 7.05381 19.328 6.91983 18.8971C6.78585 18.4663 6.48803 18.118 5.8924 17.4215L5.35012 16.7874C3.25406 14.3363 2.20603 13.1108 2.57178 11.9347C2.93752 10.7585 4.47482 10.4107 7.54942 9.71504L8.34486 9.53506C9.21856 9.33738 9.65542 9.23853 10.0062 8.97226C10.3569 8.70598 10.5819 8.30242 11.0318 7.49529L11.4415 6.76047Z" fill="#FF8307"/>
</svg>
